Coordinates
version=1
nRows=16
nColumns=22
inDegrees=yes

Units are S.I. units (second, meters, Newtons, ...)
If the header above contains a line with 'inDegrees', this indicates whether rotational values are in degrees (yes) or radians (no).

endheader
time	pelvis_tilt	pelvis_list	pelvis_rotation	pelvis_tx	pelvis_ty	pelvis_tz	hip_flexion_r	hip_adduction_r	hip_rotation_r	knee_angle_r	ankle_angle_r	subtalar_angle_r	hip_flexion_l	hip_adduction_l	hip_rotation_l	knee_angle_l	ankle_angle_l	subtalar_angle_l	lumbar_extension	lumbar_bending	lumbar_rotation
      3.54000000	      1.97611716	      3.19204272	    -32.28375291	     -0.17979363	      0.89433633	     -0.02913993	      3.49727031	     -6.34029475	      5.82867587	    -54.59466248	      6.79673123	     -3.16795604	     15.28911852	      3.93767049	    -13.16820599	    -24.59065647	     11.88594919	     -9.97820694	     -7.80503726	     -4.95823742	      8.83634913
      3.55000000	      2.17619949	      3.16337094	    -32.38359013	     -0.17410004	      0.89512450	     -0.02807801	      4.48951851	     -6.73966697	      5.49595509	    -55.55593594	      7.77680586	     -4.98822101	     14.51085012	      4.22921569	    -13.24194740	    -24.23685798	     12.11323752	    -10.13214276	     -8.05193650	     -4.96594193	      8.74034208
      3.56000000	      2.34745316	      3.10207597	    -32.48270317	     -0.16847712	      0.89594932	     -0.02698313	      5.44450504	     -7.08111318	      5.18150361	    -56.26746100	      8.80824014	     -6.89157358	     13.73977653	      4.46613463	    -13.33719616	    -23.87579253	     12.30248546	    -10.27316098	     -8.27887472	     -4.91871151	      8.60505403
      3.57000000	      2.48147859	      3.00379241	    -32.57100784	     -0.16294468	      0.89677369	     -0.02587475	      6.37079633	     -7.35280498	      4.86426626	    -56.74653607	      9.83889322	     -8.81441820	     13.00214951	      4.64254012	    -13.41383159	    -23.54556851	     12.51294382	    -10.38869859	     -8.48665420	     -4.81033981	      8.48022173
      3.58000000	      2.58496348	      2.88473469	    -32.66903356	     -0.15752352	      0.89760375	     -0.02470913	      7.27476856	     -7.54703323	      4.60217120	    -57.00588818	     10.86004109	    -10.66436838	     12.28021538	      4.77869500	    -13.46965229	    -23.20392013	     12.67312031	    -10.49856584	     -8.67220822	     -4.66618563	      8.35783324
      3.59000000	      2.64680661	      2.74006655	    -32.75813904	     -0.15218193	      0.89839211	     -0.02349260	      8.15669002	     -7.66384618	      4.33696042	    -57.05326002	     11.83912313	    -12.41783707	     11.60252817	      4.85524876	    -13.53621907	    -22.89975437	     12.87630714	    -10.58846970	     -8.82462075	     -4.47378994	      8.23768312
      3.60000000	      2.66671799	      2.56689844	    -32.84599880	     -0.14695641	      0.89913529	     -0.02220771	      9.01888648	     -7.68405263	      4.09485803	    -56.90511494	     12.74785435	    -14.04613060	     10.96704571	      4.86633979	    -13.61274751	    -22.62910878	     13.09032924	    -10.66480222	     -8.95272749	     -4.23612352	      8.13161221
      3.61000000	      2.65993078	      2.38928613	    -32.93866347	     -0.14184369	      0.89981883	     -0.02085839	      9.86967441	     -7.63875975	      3.88031307	    -56.58661039	     13.57155724	    -15.48834676	     10.36460070	      4.84758954	    -13.69564901	    -22.37243017	     13.29582549	    -10.72686579	     -9.05812497	     -3.98659282	      8.03613517
      3.62000000	      2.63696330	      2.21024558	    -33.04035297	     -0.13683855	      0.90043871	     -0.01943256	     10.70428914	     -7.54232359	      3.68167419	    -56.11403150	     14.29980580	    -16.72271203	      9.78365274	      4.80831225	    -13.78445227	    -22.12550907	     13.50811389	    -10.77351993	     -9.14868477	     -3.73771687	      7.96111045
      3.63000000	      2.60558481	      2.03061868	    -33.14867297	     -0.13193550	      0.90099134	     -0.01794099	     11.51718694	     -7.40757729	      3.48149008	    -55.49979133	     14.93341425	    -17.74197633	      9.21873245	      4.75180965	    -13.89878512	    -21.89205346	     13.73692801	    -10.80103956	     -9.23505547	     -3.49325965	      7.90233858
      3.64000000	      2.56863410	      1.85857698	    -33.26965480	     -0.12714203	      0.90147526	     -0.01637075	     12.31416856	     -7.23992834	      3.29353093	    -54.76015191	     15.49041278	    -18.51640993	      8.66535960	      4.69253773	    -14.00757155	    -21.65775723	     13.93746201	    -10.80666802	     -9.31372679	     -3.26604303	      7.84990680
      3.65000000	      2.53931813	      1.69190503	    -33.39229062	     -0.12243218	      0.90187944	     -0.01476079	     13.08619217	     -7.06846502	      3.07267673	    -53.91791069	     15.97967389	    -18.84523219	      8.12012343	      4.62839288	    -14.17105139	    -21.44456548	     14.19057959	    -10.79026838	     -9.40475103	     -3.05464905	      7.79073432
      3.66000000	      2.50562247	      1.54185152	    -33.52237428	     -0.11780030	      0.90222022	     -0.01307249	     13.83446989	     -6.88500537	      2.83900480	    -52.95598226	     16.42036858	    -18.98129476	      7.58741741	      4.57737999	    -14.29676033	    -21.22600184	     14.39769343	    -10.76454092	     -9.47658857	     -2.87282419	      7.77525087
      3.67000000	      2.49173955	      1.36178384	    -33.64648952	     -0.11324097	      0.90254294	     -0.01134781	     14.52090136	     -6.68215827	      2.54356435	    -51.91362959	     16.80670548	    -18.98911093	      7.01890194	      4.50074787	    -14.46005569	    -21.00540697	     14.63956608	    -10.71135073	     -9.59754486	     -2.67659961	      7.75287485
      3.68000000	      2.49483542	      1.17271615	    -33.75873782	     -0.10872445	      0.90283935	     -0.00957545	     15.13837592	     -6.47738426	      2.19612421	    -50.77373923	     17.16534904	    -18.72537181	      6.43548096	      4.41958241	    -14.62435603	    -20.79725177	     14.89306913	    -10.62534451	     -9.74089139	     -2.49070076	      7.72168628
      3.69000000	      2.52418255	      0.98991284	    -33.85203661	     -0.10422631	      0.90311457	     -0.00780574	     15.69414585	     -6.30559872	      1.78111375	    -49.56454325	     17.44766060	    -17.92116595	      5.82490825	      4.36671541	    -14.74503956	    -20.56956165	     15.08273023	    -10.47196683	     -9.90972664	     -2.32915364	      7.69817580
